<svg width="22" height="22" viewBox="0 0 22 22" fill="none" xmlns="http://www.w3.org/2000/svg">
<g id="Arrows/arrow bar/left">
<path id="Vector" fill-rule="evenodd" clip-rule="evenodd" d="M18.3335 2.75C18.8398 2.75 19.2502 3.16041 19.2502 3.66667V18.3333C19.2502 18.8396 18.8398 19.25 18.3335 19.25C17.8273 19.25 17.4169 18.8396 17.4169 18.3333V3.66667C17.4169 3.16041 17.8273 2.75 18.3335 2.75ZM7.9817 6.68515C8.33968 7.04313 8.33968 7.62353 7.9817 7.98151L5.87988 10.0833H12.8335C13.3398 10.0833 13.7502 10.4937 13.7502 11C13.7502 11.5063 13.3398 11.9167 12.8335 11.9167H5.87988L7.9817 14.0185C8.33968 14.3765 8.33968 14.9569 7.9817 15.3148C7.62372 15.6728 7.04332 15.6728 6.68534 15.3148L3.66685 12.2964C2.95089 11.5804 2.95089 10.4196 3.66685 9.70364L6.68534 6.68515C7.04332 6.32717 7.62372 6.32717 7.9817 6.68515Z" fill="currentColor"/>
</g>
</svg>
