<svg width="22" height="22" viewBox="0 0 22 22" fill="none" xmlns="http://www.w3.org/2000/svg">
<g id="Essentials/question/box">
<path id="Vector" fill-rule="evenodd" clip-rule="evenodd" d="M8.57759 1.83301H13.4227C14.4162 1.833 15.2175 1.83299 15.8664 1.88601C16.5345 1.94059 17.1214 2.05592 17.6643 2.33256C18.5267 2.77198 19.2279 3.47314 19.6673 4.33555C19.9439 4.87849 20.0592 5.46532 20.1138 6.13344C20.1668 6.78232 20.1668 7.58362 20.1668 8.57708V13.4223C20.1668 14.4157 20.1668 15.217 20.1138 15.8659C20.0592 16.534 19.9439 17.1209 19.6673 17.6638C19.2279 18.5262 18.5267 19.2274 17.6643 19.6668C17.1214 19.9434 16.5345 20.0588 15.8664 20.1133C15.2175 20.1664 14.4162 20.1663 13.4228 20.1663H8.57757C7.58411 20.1663 6.78281 20.1664 6.13392 20.1133C5.46581 20.0588 4.87897 19.9434 4.33604 19.6668C3.47363 19.2274 2.77247 18.5262 2.33305 17.6638C2.05641 17.1209 1.94108 16.534 1.8865 15.8659C1.83348 15.217 1.83349 14.4157 1.8335 13.4222V8.5771C1.83349 7.58363 1.83348 6.78233 1.8865 6.13344C1.94108 5.46532 2.05641 4.87849 2.33305 4.33555C2.77247 3.47314 3.47363 2.77198 4.33604 2.33256C4.87897 2.05592 5.46581 1.94059 6.13392 1.88601C6.78281 1.83299 7.58412 1.833 8.57759 1.83301ZM6.28322 3.71325C5.72848 3.75858 5.40977 3.84307 5.16836 3.96607C4.65091 4.22973 4.23021 4.65042 3.96656 5.16787C3.84356 5.40928 3.75906 5.72799 3.71374 6.28273C3.66754 6.84817 3.66683 7.57445 3.66683 8.61634V13.383C3.66683 14.4249 3.66754 15.1512 3.71374 15.7166C3.75906 16.2714 3.84356 16.5901 3.96656 16.8315C4.23021 17.3489 4.65091 17.7696 5.16836 18.0333C5.40977 18.1563 5.72848 18.2408 6.28322 18.2861C6.84865 18.3323 7.57494 18.333 8.61683 18.333H13.3835C14.4254 18.333 15.1517 18.3323 15.7171 18.2861C16.2718 18.2408 16.5906 18.1563 16.832 18.0333C17.3494 17.7696 17.7701 17.3489 18.0338 16.8315C18.1568 16.5901 18.2413 16.2714 18.2866 15.7166C18.3328 15.1512 18.3335 14.4249 18.3335 13.383V8.61634C18.3335 7.57445 18.3328 6.84817 18.2866 6.28273C18.2413 5.72799 18.1568 5.40928 18.0338 5.16787C17.7701 4.65042 17.3494 4.22973 16.832 3.96607C16.5906 3.84307 16.2718 3.75858 15.7171 3.71325C15.1517 3.66705 14.4254 3.66634 13.3835 3.66634H8.61683C7.57494 3.66634 6.84865 3.66705 6.28322 3.71325ZM11.0002 7.33301C9.98764 7.33301 9.16683 8.15382 9.16683 9.16634C9.16683 9.6726 8.75642 10.083 8.25016 10.083C7.7439 10.083 7.3335 9.6726 7.3335 9.16634C7.3335 7.1413 8.97512 5.49968 11.0002 5.49968C13.0252 5.49968 14.6668 7.1413 14.6668 9.16634C14.6668 11.1914 13.0252 12.833 11.0002 12.833C10.4939 12.833 10.0835 12.4226 10.0835 11.9163C10.0835 11.4101 10.4939 10.9997 11.0002 10.9997C12.0127 10.9997 12.8335 10.1789 12.8335 9.16634C12.8335 8.15382 12.0127 7.33301 11.0002 7.33301ZM9.62516 15.1247C9.62516 14.3653 10.2408 13.7497 11.0002 13.7497C11.7596 13.7497 12.3752 14.3653 12.3752 15.1247C12.3752 15.8841 11.7596 16.4997 11.0002 16.4997C10.2408 16.4997 9.62516 15.8841 9.62516 15.1247Z" fill="currentColor"/>
</g>
</svg>
