<svg width="48" height="48" viewBox="0 0 48 48" fill="none" xmlns="http://www.w3.org/2000/svg">
<g id="Essentials/check/circle">
<path id="Vector" fill-rule="evenodd" clip-rule="evenodd" d="M24 6C14.0589 6 6 14.0589 6 24C6 33.9411 14.0589 42 24 42C33.9411 42 42 33.9411 42 24C42 14.0589 33.9411 6 24 6ZM2 24C2 11.8497 11.8497 2 24 2C36.1503 2 46 11.8497 46 24C46 36.1503 36.1503 46 24 46C11.8497 46 2 36.1503 2 24ZM33.4799 18.6547C34.2229 19.472 34.1627 20.7369 33.3453 21.4799L23.018 30.8684C21.8738 31.9086 20.1262 31.9086 18.982 30.8684L14.6547 26.9344C13.8373 26.1914 13.7771 24.9265 14.5201 24.1092C15.2631 23.2919 16.528 23.2317 17.3453 23.9747L21 27.2971L30.6547 18.5201C31.472 17.7771 32.7369 17.8373 33.4799 18.6547ZM21.6727 27.9086L21.6715 27.9075L21.6727 27.9086Z" fill="#26AB5E"/>
</g>
</svg>
