<svg width="24" height="24" viewBox="0 0 24 24" fill="none" xmlns="http://www.w3.org/2000/svg">
<g id="Essentials/check/loading">
<path id="Vector" fill-rule="evenodd" clip-rule="evenodd" d="M10.0012 1.18134C10.6501 1.06215 11.3182 1 12 1C18.0751 1 23 5.92487 23 12C23 18.0751 18.0751 23 12 23C11.3182 23 10.6501 22.9379 10.0012 22.8187C9.45796 22.7189 9.0985 22.1976 9.19827 21.6545C9.29805 21.1113 9.81928 20.7518 10.3625 20.8516C10.8928 20.949 11.44 21 12 21C16.9706 21 21 16.9706 21 12C21 7.02944 16.9706 3 12 3C11.44 3 10.8928 3.05103 10.3625 3.14843C9.81928 3.24821 9.29805 2.88875 9.19827 2.34555C9.0985 1.80235 9.45796 1.28112 10.0012 1.18134ZM7.86561 2.8371C8.14215 3.31516 7.97879 3.92688 7.50073 4.20343C6.27293 4.91367 5.22791 5.90604 4.45488 7.09163C4.15324 7.55426 3.53367 7.68477 3.07104 7.38313C2.6084 7.08148 2.47789 6.46191 2.77954 5.99928C3.72351 4.5515 4.99912 3.34001 6.49927 2.47222C6.97733 2.19567 7.58906 2.35904 7.86561 2.8371ZM2.48576 8.75323C3.02371 8.87825 3.35846 9.4157 3.23344 9.95364C3.08088 10.6101 3 11.295 3 12C3 12.705 3.08088 13.3899 3.23344 14.0464C3.35846 14.5843 3.02371 15.1217 2.48576 15.2468C1.94782 15.3718 1.41037 15.037 1.28535 14.4991C1.09854 13.6953 1 12.8585 1 12C1 11.1415 1.09854 10.3047 1.28535 9.5009C1.41037 8.96295 1.94782 8.62821 2.48576 8.75323ZM15.7071 9.29289C16.0976 9.68342 16.0976 10.3166 15.7071 10.7071L11.7729 14.6413C11.3649 15.0493 10.7109 15.0727 10.2748 14.6948L8.34518 13.023C7.92777 12.6613 7.88257 12.0298 8.24421 11.6124C8.60586 11.195 9.23741 11.1498 9.65482 11.5114L10.9512 12.6346L14.2929 9.29289C14.6834 8.90237 15.3166 8.90237 15.7071 9.29289ZM3.07104 16.6169C3.53367 16.3152 4.15324 16.4457 4.45488 16.9084C5.22791 18.094 6.27293 19.0863 7.50073 19.7966C7.97879 20.0731 8.14215 20.6848 7.86561 21.1629C7.58906 21.641 6.97733 21.8043 6.49927 21.5278C4.99912 20.66 3.72351 19.4485 2.77954 18.0007C2.47789 17.5381 2.6084 16.9185 3.07104 16.6169Z" fill="#F0AD4E"/>
</g>
</svg>
