<svg width="20" height="20" viewBox="0 0 20 20" fill="none" xmlns="http://www.w3.org/2000/svg">
<g id="Essentials/close cross">
<path id="Vector" fill-rule="evenodd" clip-rule="evenodd" d="M15.5891 4.41107C15.9145 4.73651 15.9145 5.26414 15.5891 5.58958L11.1783 10.0003L15.5891 14.4111C15.9145 14.7365 15.9145 15.2642 15.5891 15.5896C15.2637 15.915 14.736 15.915 14.4106 15.5896L9.99983 11.1788L5.58909 15.5896C5.26366 15.915 4.73602 15.915 4.41058 15.5896C4.08514 15.2641 4.08514 14.7365 4.41058 14.4111L8.82132 10.0003L4.41058 5.58959C4.08515 5.26415 4.08515 4.73652 4.41058 4.41108C4.73602 4.08564 5.26366 4.08564 5.58909 4.41108L9.99983 8.82182L14.4106 4.41107C14.736 4.08563 15.2637 4.08563 15.5891 4.41107Z" fill="currentColor"/>
</g>
</svg>
