<svg width="64" height="44" viewBox="0 0 64 44" fill="none" xmlns="http://www.w3.org/2000/svg">
<g id="Data">
<path id="Vector" opacity="0.7" d="M32 43.75C49.6731 43.75 64 40.616 64 36.75C64 32.884 49.6731 29.75 32 29.75C14.3269 29.75 0 32.884 0 36.75C0 40.616 14.3269 43.75 32 43.75Z" fill="#BEDAC5"/>
<g id="Dato">
<path id="Rectangle 1" d="M13.4375 1.75H51.4375C53.6466 1.75 55.4375 3.54086 55.4375 5.75V9.75H9.4375V5.75C9.4375 3.54086 11.2284 1.75 13.4375 1.75Z" fill="white" fill-opacity="0.6"/>
<path id="Rectangle 2" d="M13.4375 37.75H51.4375C53.6466 37.75 55.4375 35.9591 55.4375 33.75V9.75H9.4375V33.75C9.4375 35.9591 11.2284 37.75 13.4375 37.75Z" fill="white"/>
<path id="Rectangle 1 (Stroke)" fill-rule="evenodd" clip-rule="evenodd" d="M8.4375 5.75C8.4375 2.98858 10.6761 0.75 13.4375 0.75H51.4375C54.1989 0.75 56.4375 2.98858 56.4375 5.75V33.75C56.4375 36.5114 54.1989 38.75 51.4375 38.75H13.4375C10.6761 38.75 8.4375 36.5114 8.4375 33.75V5.75ZM13.4375 2.75C11.7806 2.75 10.4375 4.09315 10.4375 5.75V33.75C10.4375 35.4069 11.7806 36.75 13.4375 36.75H51.4375C53.0944 36.75 54.4375 35.4069 54.4375 33.75V5.75C54.4375 4.09315 53.0944 2.75 51.4375 2.75H13.4375Z" fill="#8DBD99"/>
<path id="Union" fill-rule="evenodd" clip-rule="evenodd" d="M39.2812 11H25.2812V18H39.2812V11ZM23.2812 27V20H9.5V18H23.2812V11H9.5V9H55.4375V11H41.2812V18H55.4375V20H41.2812V27H55.4375V29H41.2812V37.75H39.2812V29H25.2812V37.75H23.2812V29H9.5V27H23.2812ZM25.2812 27H39.2812V20H25.2812V27Z" fill="#8DBD99"/>
</g>
</g>
</svg>
