<svg width="64" height="64" viewBox="0 0 64 64" fill="none" xmlns="http://www.w3.org/2000/svg">
<path d="M0.5 32C0.5 14.603 14.603 0.5 32 0.5C49.397 0.5 63.5 14.603 63.5 32C63.5 49.397 49.397 63.5 32 63.5C14.603 63.5 0.5 49.397 0.5 32Z" fill="#EBF5ED"/>
<path d="M0.5 32C0.5 14.603 14.603 0.5 32 0.5C49.397 0.5 63.5 14.603 63.5 32C63.5 49.397 49.397 63.5 32 63.5C14.603 63.5 0.5 49.397 0.5 32Z" stroke="#398D4D"/>
<path fill-rule="evenodd" clip-rule="evenodd" d="M32 17C27.1675 17 23.25 20.9175 23.25 25.75C23.25 30.5825 27.1675 34.5 32 34.5C36.8325 34.5 40.75 30.5825 40.75 25.75C40.75 20.9175 36.8325 17 32 17ZM39.0361 35.5746C42.0924 33.3819 44.0833 29.7985 44.0833 25.75C44.0833 19.0766 38.6734 13.6667 32 13.6667C25.3266 13.6667 19.9167 19.0766 19.9167 25.75C19.9167 29.7985 21.9077 33.3819 24.9639 35.5746C22.8177 36.2605 20.869 37.2539 19.2149 38.4945C15.8831 40.9934 13.6667 44.5727 13.6667 48.6667C13.6667 49.5872 14.4129 50.3334 15.3333 50.3334C16.2538 50.3334 17 49.5872 17 48.6667C17 45.8571 18.5145 43.1865 21.2149 41.1612C23.9158 39.1355 27.7234 37.8334 32 37.8334C36.2766 37.8334 40.0842 39.1355 42.7851 41.1612C45.4855 43.1865 47 45.8571 47 48.6667C47 49.5872 47.7462 50.3334 48.6667 50.3334C49.5871 50.3334 50.3333 49.5872 50.3333 48.6667C50.3333 44.5727 48.1169 40.9934 44.7851 38.4945C43.131 37.2539 41.1823 36.2605 39.0361 35.5746Z" fill="#087021"/>
</svg>
