<svg width="20" height="20" viewBox="0 0 20 20" fill="none" xmlns="http://www.w3.org/2000/svg">
<g id="Lead icon">
<path id="Vector" fill-rule="evenodd" clip-rule="evenodd" d="M13.7036 4.94375C13.4704 4.82821 13.1967 4.82821 12.9635 4.94375C12.8719 4.98916 12.7581 5.08738 12.2561 5.58933L12.0121 5.83342L14.1669 7.98825L14.411 7.74415C14.9129 7.2422 15.0111 7.1284 15.0565 7.03675C15.1721 6.80361 15.1721 6.52987 15.0565 6.29673C15.0111 6.20508 14.9129 6.09128 14.411 5.58933C13.909 5.08738 13.7952 4.98916 13.7036 4.94375ZM14.7598 9.75231L15.5895 8.92266C15.617 8.8951 15.6444 8.86783 15.6714 8.84084C16.0438 8.46944 16.3658 8.14828 16.5499 7.77678C16.8965 7.07734 16.8965 6.25614 16.5499 5.5567C16.3658 5.1852 16.0438 4.86404 15.6714 4.49264C15.6444 4.46564 15.617 4.43838 15.5895 4.41082C15.5619 4.38325 15.5347 4.35592 15.5077 4.32885C15.1363 3.95648 14.8151 3.63448 14.4436 3.45038C13.7442 3.10378 12.923 3.10378 12.2235 3.45038C11.852 3.63448 11.5309 3.95648 11.1595 4.32885C11.1325 4.35592 11.1052 4.38325 11.0776 4.41082L4.8561 10.6324C4.84671 10.6417 4.83739 10.6511 4.82814 10.6603C4.68942 10.7989 4.56697 10.9212 4.46116 11.0614C4.36801 11.1849 4.28653 11.3168 4.21775 11.4553C4.13961 11.6127 4.08498 11.7769 4.02308 11.9629C4.01895 11.9753 4.01479 11.9878 4.01058 12.0004L3.37466 13.9082C3.24889 14.2854 3.1369 14.6213 3.07232 14.8962C3.00867 15.167 2.94853 15.5365 3.08133 15.9089C3.24936 16.3801 3.62017 16.7509 4.09137 16.919C4.4638 17.0518 4.83325 16.9916 5.10414 16.928C5.37897 16.8634 5.71488 16.7514 6.09209 16.6256L6.1269 16.614L7.99987 15.9897C8.01248 15.9855 8.02498 15.9813 8.03739 15.9772C8.22343 15.9153 8.38764 15.8607 8.54502 15.7825C8.68354 15.7138 8.81539 15.6323 8.93885 15.5391C9.07913 15.4333 9.20143 15.3109 9.34001 15.1722C9.34925 15.1629 9.35855 15.1536 9.36795 15.1442L14.7524 9.75971C14.7537 9.75848 14.7549 9.75726 14.7561 9.75602C14.7574 9.75479 14.7586 9.75355 14.7598 9.75231ZM12.9884 9.16676L10.8335 7.01193L6.03461 11.8109C5.85288 11.9926 5.81864 12.0294 5.79168 12.0652C5.76063 12.1063 5.73347 12.1503 5.71055 12.1965C5.69064 12.2366 5.673 12.2836 5.59172 12.5275L4.9674 14.4004C4.82644 14.8233 4.73981 15.0859 4.69479 15.2774C4.69174 15.2904 4.68904 15.3025 4.68666 15.3136C4.6978 15.3113 4.70987 15.3086 4.72288 15.3055C4.91444 15.2605 5.17697 15.1739 5.59986 15.0329L7.47282 14.4086C7.71665 14.3273 7.76374 14.3097 7.80384 14.2897C7.85002 14.2668 7.89396 14.2397 7.93512 14.2086C7.97086 14.1817 8.00769 14.1474 8.18944 13.9657L12.9884 9.16676ZM9.16689 16.6667C9.16689 16.2065 9.53999 15.8334 10.0002 15.8334H15.8336C16.2938 15.8334 16.6669 16.2065 16.6669 16.6667C16.6669 17.127 16.2938 17.5001 15.8336 17.5001H10.0002C9.53999 17.5001 9.16689 17.127 9.16689 16.6667Z" fill="#585B5F"/>
</g>
</svg>
