<svg width="64" height="41" viewBox="0 0 64 41" fill="none" xmlns="http://www.w3.org/2000/svg">
<g id=".components/empty-img-simple" clip-path="url(#clip0_1546_184258)">
<path id="Vector" d="M32 40.2027C49.6731 40.2027 64 37.092 64 33.2547C64 29.4174 49.6731 26.3066 32 26.3066C14.3269 26.3066 0 29.4174 0 33.2547C0 37.092 14.3269 40.2027 32 40.2027Z" fill="#BEDAC5"/>
<g id="Group">
<path id="Vector_2" d="M55 14.1653L44.854 2.74866C44.367 1.97048 43.656 1.5 42.907 1.5H21.093C20.344 1.5 19.633 1.97048 19.146 2.74767L9 14.1663V23.3367H55V14.1653Z" fill="white" fill-opacity="0.6" stroke="#8DBD99"/>
<path id="Vector_3" d="M41.613 17.3126C41.613 15.7195 42.607 14.4043 43.84 14.4033H55V32.4057C55 34.5129 53.68 36.24 52.05 36.24H11.95C10.32 36.24 9 34.5119 9 32.4057V14.4033H20.16C21.393 14.4033 22.387 15.7165 22.387 17.3096V17.3314C22.387 18.9245 23.392 20.2109 24.624 20.2109H39.376C40.608 20.2109 41.613 18.9126 41.613 17.3195V17.3126Z" fill="white" stroke="#8DBD99"/>
</g>
</g>
<defs>
<clipPath id="clip0_1546_184258">
<rect width="64" height="40" fill="white" transform="translate(0 0.5)"/>
</clipPath>
</defs>
</svg>
