<svg width="64" height="42" viewBox="0 0 64 42" fill="none" xmlns="http://www.w3.org/2000/svg">
<g id=".components/empty-img-simple" clip-path="url(#clip0_1546_182651)">
<path id="Vector" d="M32 42C49.6731 42 64 38.866 64 35C64 31.134 49.6731 28 32 28C14.3269 28 0 31.134 0 35C0 38.866 14.3269 42 32 42Z" fill="#BEDAC5"/>
<path id="Vector_2" opacity="0.7" d="M32 42C49.6731 42 64 38.866 64 35C64 31.134 49.6731 28 32 28C14.3269 28 0 31.134 0 35C0 38.866 14.3269 42 32 42Z" fill="#BEDAC5"/>
<g id="Group">
<path id="Vector_3" d="M55 13.9844L44.854 2.28012C44.367 1.48233 43.656 1 42.907 1H21.093C20.344 1 19.633 1.48233 19.146 2.2791L9 13.9854V23.3868H55V13.9844Z" fill="white" fill-opacity="0.6" stroke="#8DBD99" stroke-width="2"/>
<g id="Presupuesto">
<g id="Group 2">
<path id="Rectangle 3" d="M22.6582 5.09082C22.6582 3.98625 23.5536 3.09082 24.6582 3.09082H39.5269C40.6314 3.09082 41.5269 3.98625 41.5269 5.09082V24.9468C41.5269 26.0514 40.6314 26.9468 39.5269 26.9468H30.347L26.3974 22.8585L22.6582 18.9879V5.09082Z" fill="white" fill-opacity="0.8"/>
<path id="Vector_4" fill-rule="evenodd" clip-rule="evenodd" d="M24.4601 2.38477L39.5398 2.38477C39.8904 2.38475 40.1928 2.38474 40.4419 2.4051C40.7048 2.42657 40.9662 2.474 41.2178 2.6022C41.5932 2.79346 41.8984 3.09865 42.0897 3.47402C42.2179 3.72563 42.2653 3.98711 42.2868 4.25C42.3071 4.49908 42.3071 4.80148 42.3071 5.15202V24.8866C42.3071 25.2371 42.3071 25.5395 42.2868 25.7886C42.2653 26.0515 42.2179 26.313 42.0897 26.5646C41.8984 26.9399 41.5932 27.2451 41.2178 27.4364C40.9662 27.5646 40.7047 27.612 40.4419 27.6335C40.1928 27.6538 39.8904 27.6538 39.5398 27.6538H30.3375C30.1262 27.6538 29.9379 27.5552 29.8161 27.4015C29.7948 27.3844 29.774 27.3657 29.7538 27.3455L22.0012 19.5929C21.981 19.5727 21.9623 19.5519 21.9451 19.5306C21.7915 19.4088 21.6929 19.2205 21.6929 19.0091L21.6929 5.15203C21.6929 4.80149 21.6928 4.49908 21.7132 4.25C21.7347 3.98711 21.7821 3.72563 21.9103 3.47401C22.1016 3.09865 22.4068 2.79346 22.7821 2.6022C23.0337 2.474 23.2952 2.42657 23.5581 2.40509C23.8072 2.38474 24.1096 2.38475 24.4601 2.38477ZM23.9632 19.6741L29.6726 25.3834V19.6741H23.9632ZM31.0025 26.3239V19.6741C31.0025 18.9396 30.4071 18.3442 29.6726 18.3442H23.0228L23.0228 5.17766C23.0228 4.79427 23.0233 4.54671 23.0387 4.3583C23.0535 4.17765 23.0785 4.11068 23.0953 4.0778C23.1591 3.95268 23.2608 3.85095 23.3859 3.78719C23.4188 3.77044 23.4858 3.74539 23.6664 3.73063C23.8548 3.71523 24.1024 3.71472 24.4858 3.71472L39.5142 3.71472C39.8976 3.71472 40.1451 3.71523 40.3336 3.73063C40.5142 3.74539 40.5812 3.77044 40.6141 3.7872C40.7392 3.85095 40.8409 3.95268 40.9047 4.0778C40.9214 4.11068 40.9465 4.17765 40.9612 4.3583C40.9766 4.54672 40.9771 4.79427 40.9771 5.17766V24.8609C40.9771 25.2443 40.9766 25.4919 40.9612 25.6803C40.9465 25.8609 40.9214 25.9279 40.9047 25.9608C40.8409 26.0859 40.7392 26.1876 40.6141 26.2514C40.5812 26.2681 40.5142 26.2932 40.3336 26.3079C40.1451 26.3233 39.8976 26.3239 39.5142 26.3239H31.0025Z" fill="#8DBD99"/>
</g>
<path id="Vector 63 (Stroke)" fill-rule="evenodd" clip-rule="evenodd" d="M27.4375 7.21869C27.4375 6.85143 27.7316 6.55371 28.0945 6.55371H36.0902C36.453 6.55371 36.7471 6.85143 36.7471 7.21869C36.7471 7.58594 36.453 7.88366 36.0902 7.88366H28.0945C27.7316 7.88366 27.4375 7.58594 27.4375 7.21869Z" fill="#8DBD99"/>
<path id="Vector 63 (Stroke)_2" fill-rule="evenodd" clip-rule="evenodd" d="M26.1079 11.2089C26.1079 10.8417 26.4021 10.5439 26.7649 10.5439H37.4205C37.7833 10.5439 38.0775 10.8417 38.0775 11.2089C38.0775 11.5762 37.7833 11.8739 37.4205 11.8739H26.7649C26.4021 11.8739 26.1079 11.5762 26.1079 11.2089Z" fill="#8DBD99"/>
<path id="Vector 63 (Stroke)_3" fill-rule="evenodd" clip-rule="evenodd" d="M26.1079 15.1992C26.1079 14.8319 26.4021 14.5342 26.7649 14.5342H37.4205C37.7833 14.5342 38.0775 14.8319 38.0775 15.1992C38.0775 15.5664 37.7833 15.8641 37.4205 15.8641H26.7649C26.4021 15.8641 26.1079 15.5664 26.1079 15.1992Z" fill="#8DBD99"/>
<path id="Vector 63 (Stroke)_4" fill-rule="evenodd" clip-rule="evenodd" d="M32.7573 19.1884C32.7573 18.8212 33.0515 18.5234 33.4143 18.5234H37.4201C37.783 18.5234 38.0771 18.8212 38.0771 19.1884C38.0771 19.5557 37.783 19.8534 37.4201 19.8534H33.4143C33.0515 19.8534 32.7573 19.5557 32.7573 19.1884Z" fill="#8DBD99"/>
</g>
<g id="Presupuesto_2">
<g id="Group 2_2">
<path id="Rectangle 3_2" d="M20.2627 7.8916C20.2627 6.78703 21.1581 5.8916 22.2627 5.8916H41.9704C43.075 5.8916 43.9704 6.78703 43.9704 7.8916V33.8656C43.9704 34.9702 43.075 35.8656 41.9704 35.8656H29.9233L24.9609 30.7289L20.2627 25.8656V7.8916Z" fill="white"/>
<path id="Vector_5" fill-rule="evenodd" clip-rule="evenodd" d="M22.5268 5.00391L41.4738 5.00391C41.9142 5.00389 42.2942 5.00388 42.6071 5.02945C42.9374 5.05644 43.266 5.11602 43.5821 5.27711C44.0538 5.51742 44.4372 5.90087 44.6775 6.3725C44.8386 6.68865 44.8982 7.01718 44.9252 7.3475C44.9508 7.66046 44.9507 8.04041 44.9507 8.48084V33.2765C44.9507 33.7169 44.9508 34.0969 44.9252 34.4098C44.8982 34.7401 44.8386 35.0687 44.6775 35.3848C44.4372 35.8565 44.0538 36.2399 43.5821 36.4802C43.266 36.6413 42.9374 36.7009 42.6071 36.7279C42.2942 36.7534 41.9142 36.7534 41.4738 36.7534H29.9115C29.646 36.7534 29.4094 36.6296 29.2563 36.4365C29.2295 36.4149 29.2034 36.3914 29.1781 36.3661L19.4372 26.6252C19.4118 26.5998 19.3884 26.5737 19.3668 26.5469C19.1737 26.3939 19.0498 26.1573 19.0498 25.8917L19.0498 8.48086C19.0498 8.04042 19.0498 7.66046 19.0753 7.3475C19.1023 7.01718 19.1619 6.68864 19.323 6.3725C19.5633 5.90087 19.9468 5.51741 20.4184 5.2771C20.7345 5.11602 21.0631 5.05644 21.3934 5.02945C21.7064 5.00388 22.0863 5.00389 22.5268 5.00391ZM21.9024 26.7273L29.076 33.9008V26.7273H21.9024ZM30.747 35.0824V26.7273C30.747 25.8044 29.9989 25.0562 29.076 25.0562H20.7208L20.7208 8.51306C20.7208 8.03135 20.7215 7.72031 20.7408 7.48357C20.7594 7.2566 20.7908 7.17244 20.8119 7.13113C20.892 6.97392 21.0198 6.8461 21.177 6.766C21.2183 6.74495 21.3025 6.71347 21.5295 6.69493C21.7662 6.67558 22.0772 6.67493 22.559 6.67493L41.4416 6.67494C41.9233 6.67494 42.2343 6.67559 42.4711 6.69493C42.698 6.71347 42.7822 6.74495 42.8235 6.766C42.9807 6.8461 43.1085 6.97392 43.1886 7.13113C43.2097 7.17244 43.2412 7.2566 43.2597 7.48358C43.279 7.72031 43.2797 8.03135 43.2797 8.51307V33.2443C43.2797 33.726 43.279 34.037 43.2597 34.2738C43.2412 34.5007 43.2097 34.5849 43.1886 34.6262C43.1085 34.7834 42.9807 34.9112 42.8235 34.9913C42.7822 35.0124 42.698 35.0439 42.4711 35.0624C42.2343 35.0817 41.9233 35.0824 41.4416 35.0824H30.747Z" fill="#8DBD99"/>
</g>
<path id="Vector 63 (Stroke)_5" fill-rule="evenodd" clip-rule="evenodd" d="M26.2681 11.0777C26.2681 10.6163 26.6376 10.2422 27.0935 10.2422H37.1398C37.5957 10.2422 37.9653 10.6163 37.9653 11.0777C37.9653 11.5391 37.5957 11.9132 37.1398 11.9132H27.0935C26.6376 11.9132 26.2681 11.5391 26.2681 11.0777Z" fill="#8DBD99"/>
<path id="Vector 63 (Stroke)_6" fill-rule="evenodd" clip-rule="evenodd" d="M24.5967 16.0914C24.5967 15.6299 24.9663 15.2559 25.4222 15.2559H38.8104C39.2663 15.2559 39.6359 15.6299 39.6359 16.0914C39.6359 16.5528 39.2663 16.9269 38.8104 16.9269H25.4222C24.9663 16.9269 24.5967 16.5528 24.5967 16.0914Z" fill="#8DBD99"/>
<path id="Vector 63 (Stroke)_7" fill-rule="evenodd" clip-rule="evenodd" d="M24.5967 21.1041C24.5967 20.6426 24.9663 20.2686 25.4222 20.2686H38.8104C39.2663 20.2686 39.6359 20.6426 39.6359 21.1041C39.6359 21.5655 39.2663 21.9396 38.8104 21.9396H25.4222C24.9663 21.9396 24.5967 21.5655 24.5967 21.1041Z" fill="#8DBD99"/>
<path id="Vector 63 (Stroke)_8" fill-rule="evenodd" clip-rule="evenodd" d="M32.9521 26.1177C32.9521 25.6563 33.3217 25.2822 33.7776 25.2822H38.8108C39.2667 25.2822 39.6363 25.6563 39.6363 26.1177C39.6363 26.5792 39.2667 26.9533 38.8108 26.9533H33.7776C33.3217 26.9533 32.9521 26.5792 32.9521 26.1177Z" fill="#8DBD99"/>
</g>
<g id="Presupuesto_3">
<g id="Group 2_3">
<path id="Rectangle 3_3" d="M44.3267 9.67188H19.9517C18.8471 9.67188 17.9517 10.5673 17.9517 11.6719V31.5781C17.9517 32.6827 18.8471 33.5781 19.9517 33.5781H46.3267V11.6719C46.3267 10.5673 45.4312 9.67188 44.3267 9.67188Z" fill="white"/>
<path id="Vector_6" fill-rule="evenodd" clip-rule="evenodd" d="M20.6615 8.60938L43.3385 8.60938C43.8657 8.60936 44.3205 8.60934 44.695 8.63995C45.0904 8.67225 45.4836 8.74356 45.862 8.93636C46.4265 9.22398 46.8854 9.68292 47.173 10.2474C47.3658 10.6258 47.4371 11.019 47.4694 11.4144C47.5 11.7889 47.5 12.2437 47.5 12.7708V33.4479C47.5 33.9751 47.5 34.4298 47.4694 34.8044C47.4371 35.1998 47.3658 35.593 47.173 35.9714C46.8854 36.5358 46.4265 36.9948 45.862 37.2824C45.4836 37.4752 45.0904 37.5465 44.695 37.5788C44.3205 37.6094 43.8657 37.6094 43.3386 37.6094H29.5C29.1822 37.6094 28.899 37.4611 28.7158 37.23C28.6838 37.2042 28.6525 37.1761 28.6222 37.1458L16.9636 25.4872C16.9333 25.4569 16.9052 25.4256 16.8794 25.3935C16.6483 25.2104 16.5 24.9272 16.5 24.6094L16.5 12.7708C16.5 12.2437 16.5 11.7889 16.5306 11.4143C16.5629 11.019 16.6342 10.6258 16.827 10.2474C17.1146 9.68292 17.5735 9.22398 18.138 8.93636C18.5164 8.74356 18.9096 8.67225 19.305 8.63995C19.6795 8.60934 20.1343 8.60936 20.6615 8.60938ZM19.9142 25.6094L28.5 34.1952V25.6094H19.9142ZM30.5 35.6094V25.6094C30.5 24.5048 29.6046 23.6094 28.5 23.6094H18.5L18.5 12.8094C18.5 12.2328 18.5008 11.8605 18.5239 11.5772C18.5461 11.3055 18.5838 11.2048 18.609 11.1554C18.7049 10.9672 18.8578 10.8142 19.046 10.7184C19.0955 10.6932 19.1962 10.6555 19.4678 10.6333C19.7512 10.6102 20.1234 10.6094 20.7 10.6094L43.3 10.6094C43.8766 10.6094 44.2488 10.6102 44.5322 10.6333C44.8038 10.6555 44.9045 10.6932 44.954 10.7184C45.1422 10.8142 45.2951 10.9672 45.391 11.1554C45.4162 11.2048 45.4539 11.3056 45.4761 11.5772C45.4992 11.8606 45.5 12.2328 45.5 12.8094V33.4094C45.5 33.9859 45.4992 34.3582 45.4761 34.6415C45.4539 34.9132 45.4162 35.0139 45.391 35.0634C45.2951 35.2515 45.1422 35.4045 44.954 35.5004C44.9045 35.5256 44.8038 35.5633 44.5322 35.5854C44.2488 35.6086 43.8766 35.6094 43.3 35.6094H30.5Z" fill="#8DBD99"/>
</g>
<path id="Vector 63 (Stroke)_9" fill-rule="evenodd" clip-rule="evenodd" d="M25.1392 15.8789C25.1392 15.3266 25.5815 14.8789 26.1272 14.8789H38.1512C38.6968 14.8789 39.1392 15.3266 39.1392 15.8789C39.1392 16.4312 38.6968 16.8789 38.1512 16.8789H26.1272C25.5815 16.8789 25.1392 16.4312 25.1392 15.8789Z" fill="#8DBD99"/>
<path id="Vector 63 (Stroke)_10" fill-rule="evenodd" clip-rule="evenodd" d="M23.1392 21.8789C23.1392 21.3266 23.5815 20.8789 24.1272 20.8789H40.1512C40.6968 20.8789 41.1392 21.3266 41.1392 21.8789C41.1392 22.4312 40.6968 22.8789 40.1512 22.8789H24.1272C23.5815 22.8789 23.1392 22.4312 23.1392 21.8789Z" fill="#8DBD99"/>
<path id="Vector 63 (Stroke)_11" fill-rule="evenodd" clip-rule="evenodd" d="M23.1392 27.8789C23.1392 27.3266 23.5815 26.8789 24.1272 26.8789H40.1512C40.6968 26.8789 41.1392 27.3266 41.1392 27.8789C41.1392 28.4312 40.6968 28.8789 40.1512 28.8789H24.1272C23.5815 28.8789 23.1392 28.4312 23.1392 27.8789Z" fill="#8DBD99"/>
<path id="Vector 63 (Stroke)_12" fill-rule="evenodd" clip-rule="evenodd" d="M33.1392 33.8789C33.1392 33.3266 33.5815 32.8789 34.1272 32.8789H40.1512C40.6968 32.8789 41.1392 33.3266 41.1392 33.8789C41.1392 34.4312 40.6968 34.8789 40.1512 34.8789H34.1272C33.5815 34.8789 33.1392 34.4312 33.1392 33.8789Z" fill="#8DBD99"/>
</g>
<path id="Vector_7" d="M41.613 17.5958C41.613 15.9626 42.607 14.6143 43.84 14.6133H55V33.0692C55 35.2295 53.68 37.0001 52.05 37.0001H11.95C10.32 37.0001 9 35.2285 9 33.0692V14.6133H20.16C21.393 14.6133 22.387 15.9595 22.387 17.5928V17.6151C22.387 19.2484 23.392 20.5672 24.624 20.5672H39.376C40.608 20.5672 41.613 19.2362 41.613 17.6029V17.5958Z" fill="white" stroke="#8DBD99" stroke-width="2"/>
</g>
</g>
<defs>
<clipPath id="clip0_1546_182651">
<rect width="64" height="42" fill="white"/>
</clipPath>
</defs>
</svg>
