<svg width="73" height="72" viewBox="0 0 73 72" fill="none" xmlns="http://www.w3.org/2000/svg">
<rect x="0.5" width="72" height="72" rx="36" fill="#C13A35"/>
<path fill-rule="evenodd" clip-rule="evenodd" d="M47.6785 24.8215C48.3294 25.4724 48.3294 26.5277 47.6785 27.1786L38.857 36.0001L47.6785 44.8216C48.3294 45.4724 48.3294 46.5277 47.6785 47.1786C47.0277 47.8295 45.9724 47.8295 45.3215 47.1786L36.5 38.3571L27.6785 47.1786C27.0276 47.8294 25.9724 47.8294 25.3215 47.1786C24.6706 46.5277 24.6706 45.4724 25.3215 44.8215L34.143 36.0001L25.3215 27.1786C24.6706 26.5277 24.6706 25.4724 25.3215 24.8215C25.9724 24.1707 27.0276 24.1707 27.6785 24.8215L36.5 33.643L45.3215 24.8215C45.9724 24.1707 47.0277 24.1707 47.6785 24.8215Z" fill="white"/>
</svg>
