<svg width="16" height="16" viewBox="0 0 16 16" fill="none" xmlns="http://www.w3.org/2000/svg">
<g id="Menus/home/2" clip-path="url(#clip0_1671_15469)">
<path id="Vector" fill-rule="evenodd" clip-rule="evenodd" d="M8.60376 2.86229C8.251 2.60103 7.74908 2.60103 7.39632 2.86229L3.77782 5.5422V12.4479C3.77782 12.9064 4.17782 13.333 4.74078 13.333H11.2593C11.8223 13.333 12.2223 12.9064 12.2223 12.4479V5.5422L8.60376 2.86229ZM13.2792 4.66581L9.39731 1.79081C8.57312 1.18041 7.42696 1.18041 6.60277 1.79081L2.72084 4.66582C2.71678 4.66876 2.71275 4.67175 2.70876 4.67477L0.269934 6.481C-0.0259451 6.70014 -0.0881607 7.11763 0.130972 7.41351C0.350104 7.70939 0.767604 7.77161 1.06348 7.55248L2.44449 6.52969V12.4479C2.44449 13.7035 3.50371 14.6663 4.74078 14.6663H11.2593C12.4964 14.6663 13.5556 13.7035 13.5556 12.4479V6.52969L14.9366 7.55248C15.2325 7.77161 15.65 7.70939 15.8691 7.41351C16.0882 7.11763 16.026 6.70014 15.7301 6.481L13.2913 4.67479C13.2873 4.67175 13.2833 4.66876 13.2792 4.66581Z" fill="currentColor"/>
</g>
<defs>
<clipPath id="clip0_1671_15469">
<rect width="16" height="16" fill="white"/>
</clipPath>
</defs>
</svg>
