<svg width="22" height="22" viewBox="0 0 22 22" fill="none" xmlns="http://www.w3.org/2000/svg">
<g id="Menus/box/double/horizontal" clip-path="url(#clip0_1660_20090)">
<path id="Vector" fill-rule="evenodd" clip-rule="evenodd" d="M16.1618 2.80405C15.513 2.75104 14.6817 2.75033 13.4998 2.75033L9.4165 2.75033V10.0837H19.2498V8.50033C19.2498 7.31842 19.2491 6.48713 19.1961 5.83831C19.144 5.2002 19.0459 4.81974 18.8956 4.52486C18.584 3.91333 18.0868 3.41614 17.4753 3.10455C17.1804 2.9543 16.8 2.85618 16.1618 2.80405ZM21.0832 8.46054C21.0832 7.32749 21.0832 6.42126 21.0234 5.68902C20.962 4.93753 20.833 4.28895 20.5291 3.69254C20.0418 2.73605 19.2641 1.9584 18.3076 1.47104C17.7112 1.16716 17.0626 1.0382 16.3111 0.976804C15.5789 0.916978 14.6727 0.916984 13.5396 0.916992L8.46008 0.916993C7.32701 0.916985 6.42078 0.916978 5.68853 0.976805C4.93705 1.0382 4.28846 1.16716 3.69205 1.47104C2.73556 1.9584 1.95791 2.73605 1.47055 3.69254C1.16667 4.28895 1.03771 4.93753 0.976316 5.68902C0.91649 6.42126 0.916496 7.3275 0.916504 8.46056L0.916504 13.5401C0.916496 14.6731 0.91649 15.5794 0.976316 16.3116C1.03772 17.0631 1.16667 17.7117 1.47055 18.3081C1.95791 19.2646 2.73556 20.0423 3.69205 20.5296C4.28846 20.8335 4.93705 20.9624 5.68853 21.0238C6.42077 21.0837 7.327 21.0837 8.46006 21.0837H13.5396C14.6727 21.0837 15.5789 21.0837 16.3111 21.0238C17.0626 20.9624 17.7112 20.8335 18.3076 20.5296C19.2641 20.0423 20.0418 19.2646 20.5291 18.3081C20.833 17.7117 20.962 17.0631 21.0234 16.3116C21.0832 15.5794 21.0832 14.6732 21.0832 13.5401V8.46054ZM19.2498 11.917H9.4165V19.2503H13.4998C14.6817 19.2503 15.513 19.2496 16.1618 19.1966C16.8 19.1445 17.1804 19.0463 17.4753 18.8961C18.0868 18.5845 18.584 18.0873 18.8956 17.4758C19.0459 17.1809 19.144 16.8005 19.1961 16.1623C19.2491 15.5135 19.2498 14.6822 19.2498 13.5003V11.917ZM7.58317 19.249L7.58317 11.0012C7.58317 11.0009 7.58317 11.0015 7.58317 11.0012C7.58317 11.0009 7.58317 10.9997 7.58317 10.9994L7.58317 2.75164C6.86534 2.75485 6.3044 2.76593 5.83782 2.80405C5.19971 2.85619 4.81926 2.9543 4.52437 3.10455C3.91284 3.41614 3.41565 3.91333 3.10407 4.52486C2.95381 4.81974 2.8557 5.2002 2.80356 5.83831C2.75055 6.48713 2.74984 7.31842 2.74984 8.50033L2.74984 13.5003C2.74984 14.6822 2.75055 15.5135 2.80356 16.1623C2.8557 16.8005 2.95381 17.1809 3.10407 17.4758C3.41566 18.0873 3.91284 18.5845 4.52437 18.8961C4.81926 19.0463 5.19971 19.1445 5.83783 19.1966C6.3044 19.2347 6.86534 19.2458 7.58317 19.249Z" fill="currentColor"/>
</g>
<defs>
<clipPath id="clip0_1660_20090">
<rect width="22" height="22" fill="white"/>
</clipPath>
</defs>
</svg>
