<svg width="20" height="20" viewBox="0 0 20 20" fill="none" xmlns="http://www.w3.org/2000/svg">
<g id="Lead icon">
<path id="Vector" fill-rule="evenodd" clip-rule="evenodd" d="M10.0002 2.49967C5.85803 2.49967 2.50016 5.85754 2.50016 9.99967C2.50016 14.1418 5.85803 17.4997 10.0002 17.4997C14.1423 17.4997 17.5002 14.1418 17.5002 9.99967C17.5002 5.85754 14.1423 2.49967 10.0002 2.49967ZM0.833496 9.99967C0.833496 4.93706 4.93755 0.833008 10.0002 0.833008C15.0628 0.833008 19.1668 4.93706 19.1668 9.99967C19.1668 15.0623 15.0628 19.1663 10.0002 19.1663C4.93755 19.1663 0.833496 15.0623 0.833496 9.99967ZM10.0002 6.66634C9.07969 6.66634 8.3335 7.41253 8.3335 8.33301C8.3335 8.79324 7.9604 9.16634 7.50016 9.16634C7.03993 9.16634 6.66683 8.79324 6.66683 8.33301C6.66683 6.49206 8.15921 4.99967 10.0002 4.99967C11.8411 4.99967 13.3335 6.49206 13.3335 8.33301C13.3335 10.174 11.8411 11.6663 10.0002 11.6663C9.53992 11.6663 9.16683 11.2932 9.16683 10.833C9.16683 10.3728 9.53992 9.99967 10.0002 9.99967C10.9206 9.99967 11.6668 9.25348 11.6668 8.33301C11.6668 7.41253 10.9206 6.66634 10.0002 6.66634ZM8.75016 13.7497C8.75016 13.0593 9.30981 12.4997 10.0002 12.4997C10.6905 12.4997 11.2502 13.0593 11.2502 13.7497C11.2502 14.44 10.6905 14.9997 10.0002 14.9997C9.30981 14.9997 8.75016 14.44 8.75016 13.7497Z" fill="#585B5F"/>
</g>
</svg>
