<svg width="66" height="65" viewBox="0 0 66 65" fill="none" xmlns="http://www.w3.org/2000/svg">
<g id="Lines">
<rect id="Rectangle 1" x="31.666" y="0.5" width="2.66822" height="16.0093" rx="1.33411" fill="#55C985"/>
<rect id="Rectangle 5" x="0.981445" y="33.8525" width="2.66822" height="16.0093" rx="1.33411" transform="rotate(-90 0.981445 33.8525)" fill="#1E8549"/>
<rect id="Rectangle 7" x="18.1465" y="60.9141" width="2.66822" height="16.0093" rx="1.33411" transform="rotate(-150 18.1465 60.9141)" fill="#124F2B"/>
<rect id="Rectangle 9" opacity="0.75" x="50.165" y="59.5801" width="2.66822" height="16.0093" rx="1.33411" transform="rotate(150 50.165 59.5801)" fill="#EAF8F0"/>
<rect id="Rectangle 11" x="61.3955" y="47.3721" width="2.66822" height="16.0093" rx="1.33411" transform="rotate(120 61.3955 47.3721)" fill="#EBF5ED"/>
<rect id="Rectangle 13" x="60.0615" y="15.3535" width="2.66822" height="16.0093" rx="1.33411" transform="rotate(60 60.0615 15.3535)" fill="#9DE0B9"/>
<rect id="Rectangle 4" opacity="0.5" x="34.334" y="64.5371" width="2.66822" height="16.0093" rx="1.33411" transform="rotate(180 34.334 64.5371)" fill="#EAF8F0"/>
<rect id="Rectangle 6" x="65.0186" y="31.1846" width="2.66822" height="16.0093" rx="1.33411" transform="rotate(90 65.0186 31.1846)" fill="#BDEAD0"/>
<rect id="Rectangle 8" x="47.8535" y="4.12305" width="2.66822" height="16.0093" rx="1.33411" transform="rotate(30 47.8535 4.12305)" fill="#70D299"/>
<rect id="Rectangle 10" x="15.835" y="5.45703" width="2.66822" height="16.0093" rx="1.33411" transform="rotate(-30 15.835 5.45703)" fill="#2ABC67"/>
<rect id="Rectangle 12" x="4.60449" y="17.665" width="2.66822" height="16.0093" rx="1.33411" transform="rotate(-60 4.60449 17.665)" fill="#26AB5E"/>
<rect id="Rectangle 14" x="5.93848" y="49.6836" width="2.66822" height="16.0093" rx="1.33411" transform="rotate(-120 5.93848 49.6836)" fill="#176739"/>
</g>
</svg>
