<svg xmlns="http://www.w3.org/2000/svg" xmlns:xlink="http://www.w3.org/1999/xlink" width="271px" height="78px" viewBox="0 0 271 78"><title>Logo_consejeria_salud_consumo_EASP_escritorio</title><g id="Logo_consejeria_salud_consumo_EASP_escritorio" stroke="none" stroke-width="1" fill="none" fill-rule="evenodd"><g id="Group-2" transform="translate(5.000000, 8.000000)"><polygon id="Fill-154" fill="#007932" points="30.0353836 0 42.2426091 0 66.6001984 62.6825397 54.3194688 62.6825397"></polygon><polygon id="Fill-155" fill="#368F3F" points="41.7883598 0 29.3301316 0 0 62.6825397 12.4638904 62.6825397"></polygon><path d="M54.3171502,62.6825397 L66.6001984,62.6825397 C59.981555,52.4531158 48.674937,45.7060185 35.8398728,45.7060185 C33.8620469,45.7060185 31.9230562,45.8691855 30.0353836,46.1754814 L30.0353836,56.0084382 C31.9202823,55.5890704 33.8759166,55.3600642 35.8800951,55.3600642 C42.9772448,55.3600642 49.444708,58.1324713 54.3171502,62.6825397" id="Fill-156" fill="#368F3F"></path></g><g id="Consejer&#xED;a-de-Salud" transform="translate(82.684000, 48.372000)" fill="#2E2925" fill-rule="nonzero"><path d="M3.924,10.884 C5.064,10.884 5.964,10.428 6.672,9.612 L5.928,8.736 C5.4,9.312 4.788,9.672 3.972,9.672 C2.412,9.672 1.428,8.388 1.428,6.288 C1.428,4.212 2.484,2.94 4.008,2.94 C4.728,2.94 5.28,3.264 5.736,3.732 L6.492,2.844 C5.952,2.256 5.088,1.728 3.984,1.728 C1.752,1.728 0,3.456 0,6.336 C0,9.228 1.704,10.884 3.924,10.884 Z" id="Path"></path><path d="M10.752,10.884 C12.384,10.884 13.86,9.624 13.86,7.428 C13.86,5.232 12.384,3.96 10.752,3.96 C9.12,3.96 7.644,5.232 7.644,7.428 C7.644,9.624 9.12,10.884 10.752,10.884 Z M10.752,9.756 C9.72,9.756 9.072,8.832 9.072,7.428 C9.072,6.036 9.72,5.1 10.752,5.1 C11.796,5.1 12.444,6.036 12.444,7.428 C12.444,8.832 11.796,9.756 10.752,9.756 Z" id="Shape"></path><path d="M15.48,10.728 L16.86,10.728 L16.86,6.048 C17.436,5.46 17.856,5.148 18.468,5.148 C19.248,5.148 19.584,5.604 19.584,6.744 L19.584,10.728 L20.964,10.728 L20.964,6.576 C20.964,4.896 20.34,3.96 18.936,3.96 C18.036,3.96 17.364,4.452 16.752,5.04 L16.716,5.04 L16.608,4.128 L15.48,4.128 L15.48,10.728 Z" id="Path"></path><path d="M24.756,10.884 C26.388,10.884 27.264,9.984 27.264,8.88 C27.264,7.632 26.244,7.224 25.32,6.876 C24.6,6.612 23.952,6.396 23.952,5.832 C23.952,5.376 24.288,5.016 25.02,5.016 C25.56,5.016 26.028,5.256 26.484,5.592 L27.132,4.74 C26.604,4.32 25.872,3.96 24.996,3.96 C23.532,3.96 22.644,4.788 22.644,5.892 C22.644,7.008 23.616,7.476 24.504,7.812 C25.212,8.088 25.956,8.352 25.956,8.952 C25.956,9.456 25.584,9.84 24.792,9.84 C24.084,9.84 23.508,9.54 22.92,9.084 L22.272,9.972 C22.92,10.5 23.844,10.884 24.756,10.884 Z" id="Path"></path><path d="M31.476,10.884 C32.34,10.884 33.096,10.596 33.708,10.188 L33.228,9.312 C32.748,9.624 32.244,9.804 31.656,9.804 C30.516,9.804 29.724,9.048 29.616,7.788 L33.9,7.788 C33.936,7.62 33.972,7.356 33.972,7.08 C33.972,5.22 33.024,3.96 31.272,3.96 C29.736,3.96 28.26,5.292 28.26,7.428 C28.26,9.612 29.688,10.884 31.476,10.884 Z M29.604,6.828 C29.736,5.676 30.468,5.04 31.296,5.04 C32.256,5.04 32.772,5.7 32.772,6.828 L29.604,6.828 Z" id="Shape"></path><path d="M34.908,13.572 C36.372,13.572 36.9,12.6 36.9,11.22 L36.9,4.128 L35.52,4.128 L35.52,11.244 C35.52,12.024 35.352,12.468 34.74,12.468 C34.524,12.468 34.32,12.408 34.14,12.36 L33.888,13.392 C34.128,13.488 34.464,13.572 34.908,13.572 Z M36.192,2.892 C36.696,2.892 37.056,2.568 37.056,2.064 C37.056,1.572 36.696,1.248 36.192,1.248 C35.688,1.248 35.34,1.572 35.34,2.064 C35.34,2.568 35.688,2.892 36.192,2.892 Z" id="Shape"></path><path d="M41.724,10.884 C42.588,10.884 43.344,10.596 43.956,10.188 L43.476,9.312 C42.996,9.624 42.492,9.804 41.904,9.804 C40.764,9.804 39.972,9.048 39.864,7.788 L44.148,7.788 C44.184,7.62 44.22,7.356 44.22,7.08 C44.22,5.22 43.272,3.96 41.52,3.96 C39.984,3.96 38.508,5.292 38.508,7.428 C38.508,9.612 39.936,10.884 41.724,10.884 Z M39.852,6.828 C39.984,5.676 40.716,5.04 41.544,5.04 C42.504,5.04 43.02,5.7 43.02,6.828 L39.852,6.828 Z" id="Shape"></path><path d="M45.756,10.728 L47.136,10.728 L47.136,6.612 C47.544,5.568 48.192,5.196 48.732,5.196 C48.996,5.196 49.164,5.232 49.392,5.304 L49.644,4.104 C49.44,4.008 49.224,3.96 48.9,3.96 C48.192,3.96 47.496,4.464 47.028,5.316 L46.992,5.316 L46.884,4.128 L45.756,4.128 L45.756,10.728 Z" id="Path"></path><path d="M50.664,10.728 L52.044,10.728 L52.044,4.128 L50.664,4.128 L50.664,10.728 Z M51.264,3 L53.484,0.912 L52.524,0 L50.568,2.316 L51.264,3 Z" id="Shape"></path><path d="M55.668,10.884 C56.46,10.884 57.168,10.488 57.768,9.972 L57.816,9.972 L57.924,10.728 L59.052,10.728 L59.052,6.756 C59.052,5.004 58.296,3.96 56.652,3.96 C55.596,3.96 54.672,4.392 53.988,4.824 L54.504,5.76 C55.068,5.4 55.716,5.088 56.412,5.088 C57.384,5.088 57.66,5.76 57.672,6.528 C54.924,6.828 53.724,7.56 53.724,8.976 C53.724,10.14 54.528,10.884 55.668,10.884 Z M56.088,9.792 C55.5,9.792 55.056,9.528 55.056,8.88 C55.056,8.136 55.716,7.632 57.672,7.404 L57.672,9.024 C57.132,9.516 56.664,9.792 56.088,9.792 Z" id="Shape"></path><path d="M65.988,10.884 C66.732,10.884 67.416,10.488 67.908,9.984 L67.956,9.984 L68.064,10.728 L69.192,10.728 L69.192,1.164 L67.812,1.164 L67.812,3.612 L67.872,4.704 C67.332,4.248 66.852,3.96 66.096,3.96 C64.62,3.96 63.264,5.292 63.264,7.428 C63.264,9.624 64.332,10.884 65.988,10.884 Z M66.312,9.744 C65.28,9.744 64.692,8.916 64.692,7.416 C64.692,5.988 65.436,5.112 66.36,5.112 C66.852,5.112 67.32,5.268 67.812,5.712 L67.812,8.94 C67.332,9.492 66.864,9.744 66.312,9.744 Z" id="Shape"></path><path d="M74.016,10.884 C74.88,10.884 75.636,10.596 76.248,10.188 L75.768,9.312 C75.288,9.624 74.784,9.804 74.196,9.804 C73.056,9.804 72.264,9.048 72.156,7.788 L76.44,7.788 C76.476,7.62 76.512,7.356 76.512,7.08 C76.512,5.22 75.564,3.96 73.812,3.96 C72.276,3.96 70.8,5.292 70.8,7.428 C70.8,9.612 72.228,10.884 74.016,10.884 Z M72.144,6.828 C72.276,5.676 73.008,5.04 73.836,5.04 C74.796,5.04 75.312,5.7 75.312,6.828 L72.144,6.828 Z" id="Shape"></path><path d="M83.388,10.884 C85.32,10.884 86.496,9.732 86.496,8.316 C86.496,7.02 85.74,6.372 84.696,5.928 L83.484,5.412 C82.764,5.124 82.056,4.836 82.056,4.068 C82.056,3.372 82.644,2.94 83.544,2.94 C84.324,2.94 84.936,3.24 85.488,3.732 L86.22,2.844 C85.548,2.16 84.576,1.728 83.544,1.728 C81.864,1.728 80.64,2.772 80.64,4.164 C80.64,5.448 81.588,6.12 82.44,6.48 L83.664,7.008 C84.48,7.368 85.08,7.62 85.08,8.424 C85.08,9.168 84.48,9.672 83.412,9.672 C82.56,9.672 81.696,9.264 81.06,8.628 L80.244,9.588 C81.048,10.404 82.176,10.884 83.388,10.884 Z" id="Path"></path><path d="M89.604,10.884 C90.396,10.884 91.104,10.488 91.704,9.972 L91.752,9.972 L91.86,10.728 L92.988,10.728 L92.988,6.756 C92.988,5.004 92.232,3.96 90.588,3.96 C89.532,3.96 88.608,4.392 87.924,4.824 L88.44,5.76 C89.004,5.4 89.652,5.088 90.348,5.088 C91.32,5.088 91.596,5.76 91.608,6.528 C88.86,6.828 87.66,7.56 87.66,8.976 C87.66,10.14 88.464,10.884 89.604,10.884 Z M90.024,9.792 C89.436,9.792 88.992,9.528 88.992,8.88 C88.992,8.136 89.652,7.632 91.608,7.404 L91.608,9.024 C91.068,9.516 90.6,9.792 90.024,9.792 Z" id="Shape"></path><path d="M96.312,10.884 C96.66,10.884 96.888,10.836 97.056,10.776 L96.876,9.732 C96.756,9.756 96.708,9.756 96.648,9.756 C96.48,9.756 96.324,9.624 96.324,9.252 L96.324,1.164 L94.944,1.164 L94.944,9.18 C94.944,10.248 95.316,10.884 96.312,10.884 Z" id="Path"></path><path d="M100.464,10.884 C101.364,10.884 102.012,10.428 102.612,9.732 L102.648,9.732 L102.756,10.728 L103.884,10.728 L103.884,4.128 L102.504,4.128 L102.504,8.712 C101.952,9.408 101.532,9.696 100.92,9.696 C100.14,9.696 99.816,9.24 99.816,8.112 L99.816,4.128 L98.436,4.128 L98.436,8.28 C98.436,9.96 99.048,10.884 100.464,10.884 Z" id="Path"></path><path d="M108.24,10.884 C108.984,10.884 109.668,10.488 110.16,9.984 L110.208,9.984 L110.316,10.728 L111.444,10.728 L111.444,1.164 L110.064,1.164 L110.064,3.612 L110.124,4.704 C109.584,4.248 109.104,3.96 108.348,3.96 C106.872,3.96 105.516,5.292 105.516,7.428 C105.516,9.624 106.584,10.884 108.24,10.884 Z M108.564,9.744 C107.532,9.744 106.944,8.916 106.944,7.416 C106.944,5.988 107.688,5.112 108.612,5.112 C109.104,5.112 109.572,5.268 110.064,5.712 L110.064,8.94 C109.584,9.492 109.116,9.744 108.564,9.744 Z" id="Shape"></path><path d="M116.52,13.488 C117.912,13.488 118.608,12.54 119.124,11.124 L121.548,4.128 L120.204,4.128 L119.148,7.524 C118.98,8.124 118.8,8.784 118.632,9.384 L118.572,9.384 C118.368,8.772 118.164,8.112 117.972,7.524 L116.748,4.128 L115.332,4.128 L117.948,10.68 L117.816,11.136 C117.576,11.844 117.156,12.372 116.436,12.372 C116.268,12.372 116.076,12.312 115.956,12.276 L115.692,13.356 C115.92,13.44 116.184,13.488 116.52,13.488 Z" id="Path"></path><path d="M129.012,10.884 C130.152,10.884 131.052,10.428 131.76,9.612 L131.016,8.736 C130.488,9.312 129.876,9.672 129.06,9.672 C127.5,9.672 126.516,8.388 126.516,6.288 C126.516,4.212 127.572,2.94 129.096,2.94 C129.816,2.94 130.368,3.264 130.824,3.732 L131.58,2.844 C131.04,2.256 130.176,1.728 129.072,1.728 C126.84,1.728 125.088,3.456 125.088,6.336 C125.088,9.228 126.792,10.884 129.012,10.884 Z" id="Path"></path><path d="M135.84,10.884 C137.472,10.884 138.948,9.624 138.948,7.428 C138.948,5.232 137.472,3.96 135.84,3.96 C134.208,3.96 132.732,5.232 132.732,7.428 C132.732,9.624 134.208,10.884 135.84,10.884 Z M135.84,9.756 C134.808,9.756 134.16,8.832 134.16,7.428 C134.16,6.036 134.808,5.1 135.84,5.1 C136.884,5.1 137.532,6.036 137.532,7.428 C137.532,8.832 136.884,9.756 135.84,9.756 Z" id="Shape"></path><path d="M140.568,10.728 L141.948,10.728 L141.948,6.048 C142.524,5.46 142.944,5.148 143.556,5.148 C144.336,5.148 144.672,5.604 144.672,6.744 L144.672,10.728 L146.052,10.728 L146.052,6.576 C146.052,4.896 145.428,3.96 144.024,3.96 C143.124,3.96 142.452,4.452 141.84,5.04 L141.804,5.04 L141.696,4.128 L140.568,4.128 L140.568,10.728 Z" id="Path"></path><path d="M149.844,10.884 C151.476,10.884 152.352,9.984 152.352,8.88 C152.352,7.632 151.332,7.224 150.408,6.876 C149.688,6.612 149.04,6.396 149.04,5.832 C149.04,5.376 149.376,5.016 150.108,5.016 C150.648,5.016 151.116,5.256 151.572,5.592 L152.22,4.74 C151.692,4.32 150.96,3.96 150.084,3.96 C148.62,3.96 147.732,4.788 147.732,5.892 C147.732,7.008 148.704,7.476 149.592,7.812 C150.3,8.088 151.044,8.352 151.044,8.952 C151.044,9.456 150.672,9.84 149.88,9.84 C149.172,9.84 148.596,9.54 148.008,9.084 L147.36,9.972 C148.008,10.5 148.932,10.884 149.844,10.884 Z" id="Path"></path><path d="M155.76,10.884 C156.66,10.884 157.308,10.428 157.908,9.732 L157.944,9.732 L158.052,10.728 L159.18,10.728 L159.18,4.128 L157.8,4.128 L157.8,8.712 C157.248,9.408 156.828,9.696 156.216,9.696 C155.436,9.696 155.112,9.24 155.112,8.112 L155.112,4.128 L153.732,4.128 L153.732,8.28 C153.732,9.96 154.344,10.884 155.76,10.884 Z" id="Path"></path><path d="M161.256,10.728 L162.636,10.728 L162.636,6.048 C163.176,5.448 163.668,5.148 164.112,5.148 C164.868,5.148 165.216,5.604 165.216,6.744 L165.216,10.728 L166.596,10.728 L166.596,6.048 C167.148,5.448 167.628,5.148 168.084,5.148 C168.828,5.148 169.188,5.604 169.188,6.744 L169.188,10.728 L170.568,10.728 L170.568,6.576 C170.568,4.896 169.92,3.96 168.54,3.96 C167.712,3.96 167.04,4.476 166.392,5.172 C166.104,4.416 165.552,3.96 164.568,3.96 C163.752,3.96 163.092,4.452 162.528,5.052 L162.492,5.052 L162.384,4.128 L161.256,4.128 L161.256,10.728 Z" id="Path"></path><path d="M175.2,10.884 C176.832,10.884 178.308,9.624 178.308,7.428 C178.308,5.232 176.832,3.96 175.2,3.96 C173.568,3.96 172.092,5.232 172.092,7.428 C172.092,9.624 173.568,10.884 175.2,10.884 Z M175.2,9.756 C174.168,9.756 173.52,8.832 173.52,7.428 C173.52,6.036 174.168,5.1 175.2,5.1 C176.244,5.1 176.892,6.036 176.892,7.428 C176.892,8.832 176.244,9.756 175.2,9.756 Z" id="Shape"></path></g><g id="EASP" transform="translate(82.585000, 16.639000)" fill="#368F3F" fill-rule="nonzero"><polygon id="Path" points="0.676 10.361 6.474 10.361 6.474 9.087 2.184 9.087 2.184 5.993 5.694 5.993 5.694 4.719 2.184 4.719 2.184 2.054 6.331 2.054 6.331 0.78 0.676 0.78"></polygon><path d="M10.283,10.53 C12.051,10.53 13,9.555 13,8.359 C13,7.007 11.895,6.565 10.894,6.188 C10.114,5.902 9.412,5.668 9.412,5.057 C9.412,4.563 9.776,4.173 10.569,4.173 C11.154,4.173 11.661,4.433 12.155,4.797 L12.857,3.874 C12.285,3.419 11.492,3.029 10.543,3.029 C8.957,3.029 7.995,3.926 7.995,5.122 C7.995,6.331 9.048,6.838 10.01,7.202 C10.777,7.501 11.583,7.787 11.583,8.437 C11.583,8.983 11.18,9.399 10.322,9.399 C9.555,9.399 8.931,9.074 8.294,8.58 L7.592,9.542 C8.294,10.114 9.295,10.53 10.283,10.53 Z" id="Path"></path><path d="M17.498,10.53 C18.317,10.53 19.162,10.231 19.825,9.646 L19.201,8.658 C18.772,9.022 18.239,9.308 17.641,9.308 C16.458,9.308 15.626,8.307 15.626,6.786 C15.626,5.278 16.484,4.264 17.693,4.264 C18.174,4.264 18.577,4.472 18.967,4.823 L19.708,3.848 C19.188,3.393 18.525,3.029 17.615,3.029 C15.73,3.029 14.079,4.407 14.079,6.786 C14.079,9.165 15.561,10.53 17.498,10.53 Z" id="Path"></path><path d="M23.413,10.53 C24.388,10.53 25.09,10.036 25.74,9.282 L25.779,9.282 L25.896,10.361 L27.118,10.361 L27.118,3.211 L25.623,3.211 L25.623,8.177 C25.025,8.931 24.57,9.243 23.907,9.243 C23.062,9.243 22.711,8.749 22.711,7.527 L22.711,3.211 L21.216,3.211 L21.216,7.709 C21.216,9.529 21.879,10.53 23.413,10.53 Z" id="Path"></path><path d="M32.344,10.53 C33.28,10.53 34.099,10.218 34.762,9.776 L34.242,8.827 C33.722,9.165 33.176,9.36 32.539,9.36 C31.304,9.36 30.446,8.541 30.329,7.176 L34.97,7.176 C35.009,6.994 35.048,6.708 35.048,6.409 C35.048,4.394 34.021,3.029 32.123,3.029 C30.459,3.029 28.86,4.472 28.86,6.786 C28.86,9.152 30.407,10.53 32.344,10.53 Z M30.316,6.136 C30.459,4.888 31.252,4.199 32.149,4.199 C33.189,4.199 33.748,4.914 33.748,6.136 L30.316,6.136 Z" id="Shape"></path><path d="M38.194,10.53 C38.571,10.53 38.818,10.478 39,10.413 L38.805,9.282 C38.675,9.308 38.623,9.308 38.558,9.308 C38.376,9.308 38.207,9.165 38.207,8.762 L38.207,0 L36.712,0 L36.712,8.684 C36.712,9.841 37.115,10.53 38.194,10.53 Z" id="Path"></path><path d="M42.276,10.53 C43.134,10.53 43.901,10.101 44.551,9.542 L44.603,9.542 L44.72,10.361 L45.942,10.361 L45.942,6.058 C45.942,4.16 45.123,3.029 43.342,3.029 C42.198,3.029 41.197,3.497 40.456,3.965 L41.015,4.979 C41.626,4.589 42.328,4.251 43.082,4.251 C44.135,4.251 44.434,4.979 44.447,5.811 C41.47,6.136 40.17,6.929 40.17,8.463 C40.17,9.724 41.041,10.53 42.276,10.53 Z M42.731,9.347 C42.094,9.347 41.613,9.061 41.613,8.359 C41.613,7.553 42.328,7.007 44.447,6.76 L44.447,8.515 C43.862,9.048 43.355,9.347 42.731,9.347 Z" id="Shape"></path><path d="M52.949,5.161 C53.261,4.121 53.56,3.068 53.833,1.976 L53.898,1.976 C54.184,3.055 54.47,4.121 54.795,5.161 L55.172,6.448 L52.559,6.448 L52.949,5.161 Z M49.855,10.361 L51.389,10.361 L52.208,7.631 L55.536,7.631 L56.342,10.361 L57.941,10.361 L54.769,0.78 L53.027,0.78 L49.855,10.361 Z" id="Shape"></path><path d="M59.072,10.361 L60.567,10.361 L60.567,5.291 C61.191,4.654 61.646,4.316 62.309,4.316 C63.154,4.316 63.518,4.81 63.518,6.045 L63.518,10.361 L65.013,10.361 L65.013,5.863 C65.013,4.043 64.337,3.029 62.816,3.029 C61.841,3.029 61.113,3.562 60.45,4.199 L60.411,4.199 L60.294,3.211 L59.072,3.211 L59.072,10.361 Z" id="Path"></path><path d="M69.654,10.53 C70.46,10.53 71.201,10.101 71.734,9.555 L71.786,9.555 L71.903,10.361 L73.125,10.361 L73.125,0 L71.63,0 L71.63,2.652 L71.695,3.835 C71.11,3.341 70.59,3.029 69.771,3.029 C68.172,3.029 66.703,4.472 66.703,6.786 C66.703,9.165 67.86,10.53 69.654,10.53 Z M70.005,9.295 C68.887,9.295 68.25,8.398 68.25,6.773 C68.25,5.226 69.056,4.277 70.057,4.277 C70.59,4.277 71.097,4.446 71.63,4.927 L71.63,8.424 C71.11,9.022 70.603,9.295 70.005,9.295 Z" id="Shape"></path><path d="M77.064,10.53 C77.922,10.53 78.689,10.101 79.339,9.542 L79.391,9.542 L79.508,10.361 L80.73,10.361 L80.73,6.058 C80.73,4.16 79.911,3.029 78.13,3.029 C76.986,3.029 75.985,3.497 75.244,3.965 L75.803,4.979 C76.414,4.589 77.116,4.251 77.87,4.251 C78.923,4.251 79.222,4.979 79.235,5.811 C76.258,6.136 74.958,6.929 74.958,8.463 C74.958,9.724 75.829,10.53 77.064,10.53 Z M77.519,9.347 C76.882,9.347 76.401,9.061 76.401,8.359 C76.401,7.553 77.116,7.007 79.235,6.76 L79.235,8.515 C78.65,9.048 78.143,9.347 77.519,9.347 Z" id="Shape"></path><path d="M84.331,10.53 C84.708,10.53 84.955,10.478 85.137,10.413 L84.942,9.282 C84.812,9.308 84.76,9.308 84.695,9.308 C84.513,9.308 84.344,9.165 84.344,8.762 L84.344,0 L82.849,0 L82.849,8.684 C82.849,9.841 83.252,10.53 84.331,10.53 Z" id="Path"></path><path d="M88.829,10.53 C89.804,10.53 90.506,10.036 91.156,9.282 L91.195,9.282 L91.312,10.361 L92.534,10.361 L92.534,3.211 L91.039,3.211 L91.039,8.177 C90.441,8.931 89.986,9.243 89.323,9.243 C88.478,9.243 88.127,8.749 88.127,7.527 L88.127,3.211 L86.632,3.211 L86.632,7.709 C86.632,9.529 87.295,10.53 88.829,10.53 Z" id="Path"></path><polygon id="Path" points="94.133 10.361 99.658 10.361 99.658 9.165 96.018 9.165 99.541 4.004 99.541 3.211 94.523 3.211 94.523 4.407 97.669 4.407 94.133 9.555"></polygon><path d="M102.843,10.53 C103.701,10.53 104.468,10.101 105.118,9.542 L105.17,9.542 L105.287,10.361 L106.509,10.361 L106.509,6.058 C106.509,4.16 105.69,3.029 103.909,3.029 C102.765,3.029 101.764,3.497 101.023,3.965 L101.582,4.979 C102.193,4.589 102.895,4.251 103.649,4.251 C104.702,4.251 105.001,4.979 105.014,5.811 C102.037,6.136 100.737,6.929 100.737,8.463 C100.737,9.724 101.608,10.53 102.843,10.53 Z M103.298,9.347 C102.661,9.347 102.18,9.061 102.18,8.359 C102.18,7.553 102.895,7.007 105.014,6.76 L105.014,8.515 C104.429,9.048 103.922,9.347 103.298,9.347 Z" id="Shape"></path><path d="M114.023,10.53 C114.829,10.53 115.57,10.101 116.103,9.555 L116.155,9.555 L116.272,10.361 L117.494,10.361 L117.494,0 L115.999,0 L115.999,2.652 L116.064,3.835 C115.479,3.341 114.959,3.029 114.14,3.029 C112.541,3.029 111.072,4.472 111.072,6.786 C111.072,9.165 112.229,10.53 114.023,10.53 Z M114.374,9.295 C113.256,9.295 112.619,8.398 112.619,6.773 C112.619,5.226 113.425,4.277 114.426,4.277 C114.959,4.277 115.466,4.446 115.999,4.927 L115.999,8.424 C115.479,9.022 114.972,9.295 114.374,9.295 Z" id="Shape"></path><path d="M122.72,10.53 C123.656,10.53 124.475,10.218 125.138,9.776 L124.618,8.827 C124.098,9.165 123.552,9.36 122.915,9.36 C121.68,9.36 120.822,8.541 120.705,7.176 L125.346,7.176 C125.385,6.994 125.424,6.708 125.424,6.409 C125.424,4.394 124.397,3.029 122.499,3.029 C120.835,3.029 119.236,4.472 119.236,6.786 C119.236,9.152 120.783,10.53 122.72,10.53 Z M120.692,6.136 C120.835,4.888 121.628,4.199 122.525,4.199 C123.565,4.199 124.124,4.914 124.124,6.136 L120.692,6.136 Z" id="Shape"></path><path d="M3.406,25.53 C5.499,25.53 6.773,24.282 6.773,22.748 C6.773,21.344 5.954,20.642 4.823,20.161 L3.51,19.602 C2.73,19.29 1.963,18.978 1.963,18.146 C1.963,17.392 2.6,16.924 3.575,16.924 C4.42,16.924 5.083,17.249 5.681,17.782 L6.474,16.82 C5.746,16.079 4.693,15.611 3.575,15.611 C1.755,15.611 0.429,16.742 0.429,18.25 C0.429,19.641 1.456,20.369 2.379,20.759 L3.705,21.331 C4.589,21.721 5.239,21.994 5.239,22.865 C5.239,23.671 4.589,24.217 3.432,24.217 C2.509,24.217 1.573,23.775 0.884,23.086 L0,24.126 C0.871,25.01 2.093,25.53 3.406,25.53 Z" id="Path"></path><path d="M10.14,25.53 C10.998,25.53 11.765,25.101 12.415,24.542 L12.467,24.542 L12.584,25.361 L13.806,25.361 L13.806,21.058 C13.806,19.16 12.987,18.029 11.206,18.029 C10.062,18.029 9.061,18.497 8.32,18.965 L8.879,19.979 C9.49,19.589 10.192,19.251 10.946,19.251 C11.999,19.251 12.298,19.979 12.311,20.811 C9.334,21.136 8.034,21.929 8.034,23.463 C8.034,24.724 8.905,25.53 10.14,25.53 Z M10.595,24.347 C9.958,24.347 9.477,24.061 9.477,23.359 C9.477,22.553 10.192,22.007 12.311,21.76 L12.311,23.515 C11.726,24.048 11.219,24.347 10.595,24.347 Z" id="Shape"></path><path d="M17.407,25.53 C17.784,25.53 18.031,25.478 18.213,25.413 L18.018,24.282 C17.888,24.308 17.836,24.308 17.771,24.308 C17.589,24.308 17.42,24.165 17.42,23.762 L17.42,15 L15.925,15 L15.925,23.684 C15.925,24.841 16.328,25.53 17.407,25.53 Z" id="Path"></path><path d="M21.905,25.53 C22.88,25.53 23.582,25.036 24.232,24.282 L24.271,24.282 L24.388,25.361 L25.61,25.361 L25.61,18.211 L24.115,18.211 L24.115,23.177 C23.517,23.931 23.062,24.243 22.399,24.243 C21.554,24.243 21.203,23.749 21.203,22.527 L21.203,18.211 L19.708,18.211 L19.708,22.709 C19.708,24.529 20.371,25.53 21.905,25.53 Z" id="Path"></path><path d="M30.329,25.53 C31.135,25.53 31.876,25.101 32.409,24.555 L32.461,24.555 L32.578,25.361 L33.8,25.361 L33.8,15 L32.305,15 L32.305,17.652 L32.37,18.835 C31.785,18.341 31.265,18.029 30.446,18.029 C28.847,18.029 27.378,19.472 27.378,21.786 C27.378,24.165 28.535,25.53 30.329,25.53 Z M30.68,24.295 C29.562,24.295 28.925,23.398 28.925,21.773 C28.925,20.226 29.731,19.277 30.732,19.277 C31.265,19.277 31.772,19.446 32.305,19.927 L32.305,23.424 C31.785,24.022 31.278,24.295 30.68,24.295 Z" id="Shape"></path><path d="M39.104,25.361 L40.612,25.361 L40.612,21.734 L42.055,21.734 C44.135,21.734 45.656,20.772 45.656,18.679 C45.656,16.521 44.135,15.78 42.003,15.78 L39.104,15.78 L39.104,25.361 Z M40.612,20.525 L40.612,17.002 L41.86,17.002 C43.381,17.002 44.174,17.418 44.174,18.679 C44.174,19.94 43.446,20.525 41.912,20.525 L40.612,20.525 Z" id="Shape"></path><path d="M49.491,25.53 C50.466,25.53 51.168,25.036 51.818,24.282 L51.857,24.282 L51.974,25.361 L53.196,25.361 L53.196,18.211 L51.701,18.211 L51.701,23.177 C51.103,23.931 50.648,24.243 49.985,24.243 C49.14,24.243 48.789,23.749 48.789,22.527 L48.789,18.211 L47.294,18.211 L47.294,22.709 C47.294,24.529 47.957,25.53 49.491,25.53 Z M50.193,16.989 L52.585,14.727 L51.558,13.739 L49.426,16.248 L50.193,16.989 Z" id="Shape"></path><path d="M58.773,25.53 C60.385,25.53 61.854,24.126 61.854,21.669 C61.854,19.472 60.827,18.029 59.02,18.029 C58.266,18.029 57.499,18.432 56.888,18.965 L56.94,17.743 L56.94,15 L55.445,15 L55.445,25.361 L56.615,25.361 L56.758,24.62 L56.797,24.62 C57.408,25.192 58.123,25.53 58.773,25.53 Z M58.487,24.295 C58.045,24.295 57.486,24.126 56.94,23.645 L56.94,20.148 C57.525,19.563 58.071,19.277 58.63,19.277 C59.826,19.277 60.307,20.2 60.307,21.695 C60.307,23.372 59.527,24.295 58.487,24.295 Z" id="Shape"></path><path d="M65.104,25.53 C65.481,25.53 65.728,25.478 65.91,25.413 L65.715,24.282 C65.585,24.308 65.533,24.308 65.468,24.308 C65.286,24.308 65.117,24.165 65.117,23.762 L65.117,15 L63.622,15 L63.622,23.684 C63.622,24.841 64.025,25.53 65.104,25.53 Z" id="Path"></path><path d="M67.496,25.361 L68.991,25.361 L68.991,18.211 L67.496,18.211 L67.496,25.361 Z M68.237,16.872 C68.783,16.872 69.173,16.521 69.173,15.975 C69.173,15.442 68.783,15.091 68.237,15.091 C67.691,15.091 67.314,15.442 67.314,15.975 C67.314,16.521 67.691,16.872 68.237,16.872 Z" id="Shape"></path><path d="M74.139,25.53 C74.958,25.53 75.803,25.231 76.466,24.646 L75.842,23.658 C75.413,24.022 74.88,24.308 74.282,24.308 C73.099,24.308 72.267,23.307 72.267,21.786 C72.267,20.278 73.125,19.264 74.334,19.264 C74.815,19.264 75.218,19.472 75.608,19.823 L76.349,18.848 C75.829,18.393 75.166,18.029 74.256,18.029 C72.371,18.029 70.72,19.407 70.72,21.786 C70.72,24.165 72.202,25.53 74.139,25.53 Z" id="Path"></path><path d="M79.638,25.53 C80.496,25.53 81.263,25.101 81.913,24.542 L81.965,24.542 L82.082,25.361 L83.304,25.361 L83.304,21.058 C83.304,19.16 82.485,18.029 80.704,18.029 C79.56,18.029 78.559,18.497 77.818,18.965 L78.377,19.979 C78.988,19.589 79.69,19.251 80.444,19.251 C81.497,19.251 81.796,19.979 81.809,20.811 C78.832,21.136 77.532,21.929 77.532,23.463 C77.532,24.724 78.403,25.53 79.638,25.53 Z M80.093,24.347 C79.456,24.347 78.975,24.061 78.975,23.359 C78.975,22.553 79.69,22.007 81.809,21.76 L81.809,23.515 C81.224,24.048 80.717,24.347 80.093,24.347 Z" id="Shape"></path></g></g></svg>