<svg width="22" height="22" viewBox="0 0 22 22" fill="none" xmlns="http://www.w3.org/2000/svg">
<g id="Technology/folder/opened ">
<path id="Vector" fill-rule="evenodd" clip-rule="evenodd" d="M3.66699 4.58333C3.16073 4.58333 2.75033 4.99374 2.75033 5.5V12.0877L3.31369 10.2098C3.66265 9.04659 4.73329 8.25 5.94772 8.25H17.417V7.33333C17.417 6.82707 17.0066 6.41667 16.5003 6.41667H9.92638C9.19704 6.41667 8.49757 6.12694 7.98184 5.61121L7.22245 4.85182L7.87063 4.20364L7.22245 4.85182C7.05054 4.67991 6.81738 4.58333 6.57427 4.58333H3.66699ZM19.2503 8.65027V7.33333C19.2503 5.81455 18.0191 4.58333 16.5003 4.58333H9.92638C9.68327 4.58333 9.45011 4.48676 9.2782 4.31485L8.51881 3.55546C8.00309 3.03973 7.30361 2.75 6.57427 2.75H3.66699C2.14821 2.75 0.916992 3.98122 0.916992 5.5V18.3333C0.916992 18.8396 1.3274 19.25 1.83366 19.25C1.88293 19.25 1.93129 19.2461 1.97845 19.2386C2.03158 19.2461 2.08605 19.25 2.14167 19.25H16.4439C17.7058 19.25 18.8057 18.3912 19.1118 17.167L20.4868 11.667C20.7922 10.4454 20.2324 9.25081 19.2503 8.65027ZM3.06569 17.4167H16.4439C16.8645 17.4167 17.2312 17.1304 17.3332 16.7223L18.7082 11.2223C18.8528 10.6438 18.4153 10.0833 17.8189 10.0833H5.94772C5.54291 10.0833 5.18603 10.3489 5.06971 10.7366L3.06569 17.4167Z" fill="currentColor"/>
</g>
</svg>
