<svg width="20" height="21" viewBox="0 0 20 21" fill="none" xmlns="http://www.w3.org/2000/svg">
<g id="Messages/upload">
<path id="Vector" fill-rule="evenodd" clip-rule="evenodd" d="M8.82133 2.99987C9.4722 2.349 10.5275 2.349 11.1783 2.99987L13.9224 5.74395C14.2479 6.06939 14.2479 6.59703 13.9224 6.92246C13.597 7.2479 13.0694 7.2479 12.7439 6.92246L10.8332 5.01172L10.8332 13.8332C10.8332 14.2934 10.4601 14.6665 9.99984 14.6665C9.5396 14.6665 9.1665 14.2934 9.1665 13.8332L9.16651 5.01172L7.25576 6.92246C6.93032 7.2479 6.40269 7.2479 6.07725 6.92246C5.75181 6.59703 5.75181 6.06939 6.07725 5.74395L8.82133 2.99987ZM2.49984 12.9999C2.96008 12.9999 3.33317 13.373 3.33317 13.8332V13.9999C3.33317 14.7137 3.33382 15.1989 3.36446 15.574C3.39431 15.9394 3.44842 16.1262 3.51483 16.2565C3.67462 16.5701 3.92958 16.8251 4.24319 16.9849C4.37352 17.0513 4.56036 17.1054 4.9257 17.1352C5.30078 17.1659 5.78602 17.1665 6.49984 17.1665H13.4998C14.2137 17.1665 14.6989 17.1659 15.074 17.1352C15.4393 17.1054 15.6262 17.0513 15.7565 16.9849C16.0701 16.8251 16.3251 16.5701 16.4848 16.2565C16.5513 16.1262 16.6054 15.9394 16.6352 15.574C16.6659 15.1989 16.6665 14.7137 16.6665 13.9999V13.8332C16.6665 13.373 17.0396 12.9999 17.4998 12.9999C17.9601 12.9999 18.3332 13.373 18.3332 13.8332V14.0343C18.3332 14.7051 18.3332 15.2587 18.2963 15.7097C18.2581 16.1781 18.1759 16.6087 17.9699 17.0132C17.6503 17.6404 17.1403 18.1503 16.5131 18.4699C16.1087 18.676 15.6781 18.7581 15.2097 18.7964C14.7587 18.8332 14.2051 18.8332 13.5343 18.8332H6.4654C5.7946 18.8332 5.24097 18.8332 4.78998 18.7964C4.32157 18.7581 3.89098 18.676 3.48654 18.4699C2.85933 18.1503 2.34939 17.6404 2.02982 17.0132C1.82374 16.6087 1.7416 16.1781 1.70333 15.7097C1.66648 15.2587 1.66649 14.7051 1.6665 14.0343L1.6665 13.8332C1.6665 13.373 2.0396 12.9999 2.49984 12.9999Z" fill="currentColor"/>
</g>
</svg>
