<svg width="22" height="22" viewBox="0 0 22 22" fill="none" xmlns="http://www.w3.org/2000/svg">
<g id="Essentials/wreach">
<path id="Vector" fill-rule="evenodd" clip-rule="evenodd" d="M9.03467 3.9064C8.98486 4.09888 9.03199 4.41286 9.29594 4.67652L10.2527 5.6322C11.409 6.78718 11.409 8.66019 10.2527 9.81516L9.82208 10.2453C8.66638 11.3997 6.79305 11.3997 5.63735 10.2453L4.6806 9.28961C4.41657 9.02587 4.10139 8.97821 3.90744 9.02829C3.8155 9.05203 3.76283 9.09281 3.73369 9.12928C3.70834 9.16099 3.66683 9.23085 3.66683 9.38168C3.66683 10.9598 4.3061 12.3873 5.34262 13.4227C6.37915 14.4581 7.80869 15.097 9.38957 15.097C9.66609 15.097 9.93753 15.0775 10.2027 15.0399C11.1625 14.9037 12.3083 15.0828 13.1293 15.9028L15.2322 18.0034C15.6721 18.4429 16.3858 18.4429 16.8257 18.0034L18.004 16.8265C18.4473 16.3837 18.4427 15.6648 17.9939 15.2277L15.9363 13.2238C15.0843 12.3941 14.9018 11.217 15.0489 10.2364C15.0906 9.95809 15.1123 9.6727 15.1123 9.38168C15.1123 7.80352 14.473 6.37605 13.4365 5.34069C12.4 4.30531 10.9704 3.66634 9.38957 3.66634C9.23785 3.66634 9.1674 3.70805 9.13547 3.73352C9.09887 3.76271 9.05829 3.81513 9.03467 3.9064ZM7.25981 3.44708C7.49436 2.54074 8.26891 1.83301 9.38957 1.83301C11.4755 1.83301 13.3657 2.67867 14.7322 4.0436C16.0986 5.40856 16.9456 7.29709 16.9456 9.38168C16.9456 9.76401 16.9171 10.1403 16.8619 10.5083C16.7711 11.1141 16.9176 11.6204 17.2155 11.9105L19.273 13.9143C20.4543 15.0648 20.4663 16.9582 19.2996 18.1235L18.1213 19.3005C16.9656 20.4549 15.0923 20.4549 13.9366 19.3005L11.8336 17.1999C11.5461 16.9127 11.0524 16.771 10.4602 16.8551C10.11 16.9047 9.7525 16.9304 9.38957 16.9304C7.3036 16.9304 5.41344 16.0847 4.04698 14.7198C2.6805 13.3548 1.8335 11.4663 1.8335 9.38168C1.8335 8.26036 2.54317 7.4871 3.44908 7.25318C4.30357 7.03254 5.27752 7.29458 5.97624 7.99252L6.93299 8.94821C7.37289 9.38762 8.08654 9.38762 8.52644 8.94821L8.95705 8.51807C9.39639 8.07922 9.39639 7.36814 8.95706 6.92929L8.0003 5.9736C7.30151 5.27559 7.03859 4.30187 7.25981 3.44708Z" fill="currentColor"/>
</g>
</svg>
